<svg xmlns="http://www.w3.org/2000/svg" xmlns:xlink="http://www.w3.org/1999/xlink" width="800" zoomAndPan="magnify" viewBox="0 0 600 599.999999" height="800" preserveAspectRatio="xMidYMid meet" version="1.0"><path fill="#ffffff" d="M 295.386719 2.113281 C 294.324219 2.425781 224.859375 37.15625 215.910156 41.851562 C 214.21875 42.726562 210.527344 44.542969 207.773438 45.855469 C 205.019531 47.171875 192.941406 53.304688 180.863281 59.375 C 168.847656 65.507812 148.382812 75.894531 135.492188 82.464844 C 122.601562 88.976562 107.769531 96.546875 102.574219 99.175781 C 97.382812 101.867188 86.117188 107.625 77.542969 112.003906 C 68.96875 116.386719 61.335938 120.640625 60.519531 121.515625 L 59.082031 123.082031 L 59.457031 138.851562 C 59.644531 147.488281 60.144531 183.847656 60.457031 219.644531 C 61.148438 290.609375 62.085938 350 62.523438 352.941406 C 62.710938 353.941406 63.148438 357.882812 63.523438 361.703125 C 63.964844 365.457031 64.652344 370.273438 65.089844 372.339844 C 65.589844 374.40625 66.402344 378.222656 66.96875 380.789062 C 69.71875 393.367188 74.289062 406.195312 80.421875 418.335938 C 85.992188 429.539062 86.929688 431.042969 94.503906 441.804688 C 99.945312 449.566406 117.65625 467.464844 126.105469 473.785156 C 134.054688 479.667969 146.195312 488.363281 157.394531 496.1875 C 159.648438 497.753906 162.902344 500.003906 164.59375 501.257812 C 166.34375 502.445312 169.722656 504.824219 172.101562 506.449219 C 174.542969 508.140625 181.300781 512.835938 187.121094 516.902344 C 193.003906 520.96875 200.703125 526.351562 204.332031 528.792969 C 207.960938 531.296875 213.15625 534.863281 215.910156 536.800781 C 218.664062 538.679688 223.730469 542.246094 227.171875 544.625 C 230.617188 547.003906 240.066406 553.511719 248.136719 559.144531 C 263.972656 570.09375 267.476562 572.535156 275.671875 578.230469 C 278.613281 580.234375 284.683594 584.425781 289.128906 587.617188 C 299.453125 594.878906 304.085938 597.945312 304.898438 597.945312 C 305.210938 597.945312 308.589844 595.628906 312.347656 592.875 C 316.101562 590.058594 320.980469 586.492188 323.234375 584.925781 C 325.488281 583.300781 330.558594 579.671875 334.5 576.730469 C 338.441406 573.851562 343.136719 570.410156 344.824219 569.15625 C 346.578125 567.90625 349.519531 565.777344 351.394531 564.402344 C 353.273438 563.023438 357.214844 560.144531 360.15625 558.015625 C 363.097656 555.890625 370.296875 550.632812 376.117188 546.316406 C 382 542.058594 389.320312 536.675781 392.386719 534.425781 C 400.210938 528.730469 413.476562 518.96875 418.359375 515.398438 C 420.609375 513.773438 424.554688 510.894531 427.117188 509.015625 C 429.683594 507.078125 436.882812 501.757812 443.078125 497.125 C 449.210938 492.496094 454.90625 488.300781 455.65625 487.800781 C 456.46875 487.300781 460.347656 484.296875 464.292969 481.230469 C 468.296875 478.101562 472.929688 474.660156 474.554688 473.472656 C 479.25 469.964844 489.699219 460.828125 494.519531 455.824219 C 512.855469 436.796875 527.5625 409.890625 534.132812 383.292969 C 535.070312 379.347656 536.070312 374.59375 536.257812 372.777344 C 536.511719 370.964844 536.949219 368.835938 537.261719 368.085938 C 539.703125 362.203125 540.453125 318.644531 539.136719 257.503906 C 538.761719 240.796875 538.199219 202.496094 537.949219 172.394531 C 537.636719 142.292969 537.199219 117.136719 536.949219 116.574219 C 536.449219 115.320312 530.503906 112.378906 481.5625 88.851562 C 473.492188 84.90625 465.292969 81.027344 463.414062 80.089844 C 461.539062 79.148438 454.90625 76.019531 448.710938 73.078125 C 442.515625 70.136719 435.191406 66.632812 432.4375 65.320312 C 429.683594 64.003906 424.742188 61.691406 421.488281 60.1875 C 414.476562 56.871094 405.839844 52.804688 395.515625 47.859375 C 391.386719 45.917969 386.316406 43.480469 384.25 42.539062 C 376.617188 38.972656 368.417969 35.15625 361.722656 31.902344 C 357.96875 30.085938 350.207031 26.394531 344.511719 23.765625 C 338.816406 21.074219 329.242188 16.570312 323.234375 13.753906 C 295.574219 0.671875 297.390625 1.425781 295.386719 2.113281 Z M 306.964844 57.183594 C 311.96875 59.5625 324.488281 65.507812 334.8125 70.386719 C 345.136719 75.332031 356.152344 80.527344 359.21875 81.964844 C 362.347656 83.46875 367.542969 85.910156 370.796875 87.472656 C 374.050781 89.039062 382.0625 92.855469 388.507812 95.984375 C 394.953125 99.113281 400.335938 101.679688 400.460938 101.679688 C 400.585938 101.679688 407.28125 104.871094 415.292969 108.8125 C 423.363281 112.691406 433.3125 117.511719 437.445312 119.515625 C 441.574219 121.515625 448.648438 124.894531 453.089844 127.023438 C 476.933594 138.476562 490.824219 145.546875 491.140625 146.300781 C 492.265625 149.300781 494.457031 342.550781 493.453125 353.566406 C 493.203125 356.632812 492.640625 360.011719 492.265625 360.949219 C 491.890625 361.953125 491.578125 363.703125 491.578125 364.894531 C 491.578125 367.082031 488.824219 376.535156 486.570312 382.039062 C 485.945312 383.605469 484.820312 386.484375 484.066406 388.484375 C 482.503906 392.492188 476.183594 403.757812 472.488281 408.949219 C 468.734375 414.332031 466.605469 416.898438 461.539062 422.28125 C 454.277344 429.976562 449.148438 434.109375 429.933594 447.75 C 427.746094 449.316406 422.675781 452.945312 418.609375 455.886719 C 414.601562 458.828125 410.285156 461.894531 409.03125 462.769531 C 399.894531 469.152344 388.820312 477.226562 386.066406 479.417969 C 384.3125 480.855469 381.746094 482.796875 380.433594 483.671875 C 379.058594 484.609375 376.992188 486.050781 375.804688 486.863281 C 374.613281 487.738281 372.109375 489.492188 370.234375 490.742188 C 368.417969 492.058594 365.789062 493.933594 364.539062 495 C 363.222656 496 361.347656 497.375 360.40625 498.003906 C 359.40625 498.566406 356.902344 500.316406 354.839844 501.882812 C 352.773438 503.382812 349.269531 505.886719 347.015625 507.453125 C 344.761719 509.015625 342.132812 510.957031 341.070312 511.707031 C 340.070312 512.457031 338.503906 513.585938 337.628906 514.210938 C 336.753906 514.835938 334.5 516.527344 332.621094 517.964844 C 330.808594 519.40625 326.675781 522.285156 323.546875 524.285156 C 320.480469 526.351562 315.789062 529.605469 313.222656 531.546875 C 307.339844 535.988281 305.273438 537.242188 304.210938 537.242188 C 303.710938 537.242188 298.640625 534.050781 292.945312 530.167969 C 287.25 526.351562 280.992188 522.160156 279.179688 520.96875 C 277.300781 519.78125 271.667969 515.964844 266.597656 512.519531 C 261.59375 509.078125 256.398438 505.636719 255.148438 504.824219 C 253.894531 504.011719 246.074219 498.753906 237.8125 493.121094 C 216.035156 478.226562 186.746094 458.453125 182.742188 455.886719 C 177.734375 452.695312 162.027344 441.742188 157.707031 438.425781 C 150.011719 432.542969 141.5 424.65625 135.179688 417.398438 C 124.351562 405.007812 113.777344 383.855469 110.773438 368.585938 C 110.335938 366.144531 109.648438 362.953125 109.269531 361.390625 C 108.207031 356.507812 107.394531 328.972656 107.082031 282.222656 C 106.894531 257.441406 106.394531 217.953125 105.953125 194.421875 C 105.328125 157.375 105.328125 151.617188 106.140625 150.867188 C 107.019531 149.992188 111.648438 147.550781 137.058594 134.535156 C 144.316406 130.839844 154.140625 125.773438 158.960938 123.269531 C 174.980469 114.945312 208.148438 98.050781 262.84375 70.386719 C 279.367188 62.003906 293.882812 54.679688 295.074219 53.992188 C 296.261719 53.367188 297.390625 52.867188 297.578125 52.867188 C 297.765625 52.867188 301.957031 54.804688 306.964844 57.183594 Z M 306.964844 57.183594 " fill-opacity="1" fill-rule="nonzero"/><path fill="#ffffff" d="M 288.816406 94.667969 C 279.242188 99.550781 253.957031 112.503906 234.996094 122.207031 C 226.546875 126.523438 215.15625 132.34375 209.652344 135.160156 C 204.144531 137.976562 193.191406 143.609375 185.246094 147.675781 C 177.359375 151.679688 164.40625 158.3125 156.457031 162.320312 C 143.378906 169.015625 142.0625 169.828125 141.75 171.457031 C 141.25 174.460938 142.3125 276.65625 143.253906 315.328125 C 144.191406 352.503906 144.691406 358.132812 147.132812 363.703125 C 147.632812 364.769531 148.007812 366.082031 148.007812 366.644531 C 148.007812 369.335938 156.269531 385.480469 160.460938 391.113281 C 165.90625 398.25 178.796875 411.015625 185.996094 416.335938 C 195.132812 423.03125 227.488281 445.433594 255.335938 464.335938 C 258.089844 466.210938 262.34375 469.089844 264.722656 470.78125 C 274.484375 477.476562 286 485.359375 297.578125 493.121094 C 304.273438 497.691406 312.285156 503.132812 315.414062 505.261719 C 318.480469 507.328125 321.609375 509.078125 322.296875 509.078125 C 322.984375 509.078125 324.296875 508.578125 325.175781 507.953125 C 327.554688 506.386719 332.933594 502.695312 337.628906 499.441406 C 339.882812 497.878906 343.136719 495.5625 344.824219 494.371094 C 346.578125 493.183594 350.769531 490.242188 354.210938 487.800781 C 357.65625 485.359375 361.410156 482.734375 362.472656 481.980469 C 364.914062 480.355469 365.351562 479.480469 364.351562 478.226562 C 363.914062 477.664062 354.023438 470.84375 342.320312 463.019531 C 330.621094 455.199219 313.722656 443.871094 304.773438 437.800781 C 295.824219 431.730469 280.742188 421.589844 271.230469 415.207031 C 250.765625 401.441406 238.875 393.429688 232.492188 388.988281 C 229.925781 387.171875 225.859375 384.417969 223.417969 382.792969 C 207.710938 372.464844 198.699219 361.515625 194.632812 347.808594 L 192.941406 342.300781 L 192.441406 308.820312 C 192.128906 290.421875 191.566406 258.882812 191.253906 238.730469 C 190.5625 204.1875 190.625 202.121094 191.628906 201.121094 C 192.816406 199.992188 197.574219 197.363281 222.480469 184.222656 C 241.503906 174.210938 248.703125 170.453125 254.144531 167.703125 C 256.523438 166.511719 263.15625 163.070312 268.851562 160.066406 C 274.484375 157 283.558594 152.304688 288.941406 149.554688 L 298.703125 144.546875 L 305.773438 147.988281 C 309.71875 149.804688 334.125 161.820312 359.96875 174.648438 C 396.578125 192.734375 407.21875 198.304688 407.65625 199.429688 C 408.40625 201.246094 409.597656 265.203125 409.660156 307.257812 C 409.660156 337.234375 409.597656 338.734375 408.34375 343.554688 C 406.84375 349.25 403.152344 357.195312 400.085938 361.453125 C 395.078125 368.398438 388.382812 374.40625 374.175781 384.542969 C 371.546875 386.421875 366.664062 389.988281 363.347656 392.429688 C 355.464844 398.1875 336.816406 411.515625 330.808594 415.644531 C 328.179688 417.460938 324.800781 420.027344 323.234375 421.402344 C 320.417969 423.84375 320.417969 423.90625 321.671875 425.097656 C 322.359375 425.785156 326.050781 428.414062 329.804688 430.980469 C 333.625 433.542969 342.445312 439.613281 349.519531 444.496094 C 357.589844 450.066406 362.910156 453.382812 363.914062 453.382812 C 364.789062 453.382812 366.917969 452.320312 368.667969 451.066406 C 370.421875 449.753906 374.738281 446.5625 378.242188 443.996094 C 419.984375 413.457031 427.371094 407.324219 436.632812 395.996094 C 441.074219 390.550781 447.144531 381.351562 449.210938 376.972656 C 452.589844 369.835938 453.964844 366.269531 454.402344 364.015625 C 454.65625 362.765625 455.03125 361.261719 455.34375 360.636719 C 455.65625 360.074219 456.46875 356.007812 457.21875 351.5625 C 458.535156 343.742188 458.535156 342.550781 458.160156 296.929688 C 457.910156 271.273438 457.46875 242.421875 457.15625 232.785156 C 456.84375 223.148438 456.59375 204.8125 456.53125 191.984375 C 456.53125 179.214844 456.28125 168.078125 455.96875 167.261719 C 455.59375 166.386719 453.839844 165.074219 451.398438 163.820312 C 446.019531 161.066406 414.976562 145.984375 408.03125 142.667969 C 401.398438 139.539062 378.367188 128.402344 366.730469 122.644531 C 358.03125 118.386719 341.820312 110.628906 330.117188 104.996094 C 326.175781 103.117188 320.417969 100.363281 317.289062 98.863281 C 297.703125 89.476562 298.703125 89.601562 288.816406 94.667969 Z M 288.816406 94.667969 " fill-opacity="1" fill-rule="nonzero"/><path fill="#ffffff" d="M 295.699219 223.710938 C 286.9375 224.523438 280.804688 227.277344 274.546875 233.285156 C 267.414062 240.171875 264.410156 247.429688 264.410156 257.941406 C 264.410156 263.386719 264.660156 265.015625 266.285156 269.582031 C 267.289062 272.523438 269.101562 276.277344 270.167969 277.96875 C 272.042969 280.785156 279.742188 288.167969 280.804688 288.167969 C 282.058594 288.167969 282.496094 294.804688 282.871094 320.898438 C 283.246094 344.679688 283.496094 349.6875 284.246094 350.4375 C 285 351.1875 287.875 351.375 300.332031 351.375 C 314.660156 351.375 315.601562 351.3125 316.664062 350.125 C 317.726562 348.996094 317.726562 347.246094 317.351562 319.648438 C 316.976562 295.742188 317.039062 290.171875 317.726562 289.359375 C 318.164062 288.796875 320.105469 287.167969 321.984375 285.667969 C 327.679688 281.285156 331.621094 275.777344 334 268.707031 C 336.441406 261.320312 335.4375 248.867188 331.871094 242.671875 C 327.175781 234.601562 320.917969 228.78125 313.535156 225.652344 C 308.464844 223.523438 303.523438 223.023438 295.699219 223.710938 Z M 295.699219 223.710938 " fill-opacity="1" fill-rule="nonzero"/></svg>