<?xml version="1.0" standalone="no"?>
<!DOCTYPE svg PUBLIC "-//W3C//DTD SVG 20010904//EN"
 "http://www.w3.org/TR/2001/REC-SVG-20010904/DTD/svg10.dtd">
<svg version="1.0" xmlns="http://www.w3.org/2000/svg"
 width="900.000000pt" height="1080.000000pt" viewBox="0 0 900.000000 1080.000000"
 preserveAspectRatio="xMidYMid meet">
<metadata>
Created by potrace 1.10, written by Peter Selinger 2001-2011
</metadata>
<g transform="translate(0.000000,1080.000000) scale(0.100000,-0.100000)"
fill="currentColor" stroke="none">
<path d="M4385 10401 c-17 -5 -1127 -560 -1270 -635 -27 -14 -86 -43 -130 -64
-44 -21 -237 -119 -430 -216 -192 -98 -519 -264 -725 -369 -206 -104 -443
-225 -526 -267 -83 -43 -263 -135 -400 -205 -137 -70 -259 -138 -272 -152
l-23 -25 6 -252 c3 -138 11 -719 16 -1291 11 -1134 26 -2083 33 -2130 3 -16
10 -79 16 -140 7 -60 18 -137 25 -170 8 -33 21 -94 30 -135 44 -201 117 -406
215 -600 89 -179 104 -203 225 -375 87 -124 370 -410 505 -511 127 -94 321
-233 500 -358 36 -25 88 -61 115 -81 28 -19 82 -57 120 -83 39 -27 147 -102
240 -167 94 -65 217 -151 275 -190 58 -40 141 -97 185 -128 44 -30 125 -87
180 -125 55 -38 206 -142 335 -232 253 -175 309 -214 440 -305 47 -32 144 -99
215 -150 165 -116 239 -165 252 -165 5 0 59 37 119 81 60 45 138 102 174 127
36 26 117 84 180 131 63 46 138 101 165 121 28 20 75 54 105 76 30 22 93 68
140 102 47 34 162 118 255 187 94 68 211 154 260 190 125 91 337 247 415 304
36 26 99 72 140 102 41 31 156 116 255 190 98 74 189 141 201 149 13 8 75 56
138 105 64 50 138 105 164 124 75 56 242 202 319 282 293 304 528 734 633
1159 15 63 31 139 34 168 4 29 11 63 16 75 39 94 51 790 30 1767 -6 267 -15
879 -19 1360 -5 481 -12 883 -16 892 -8 20 -103 67 -885 443 -129 63 -260 125
-290 140 -30 15 -136 65 -235 112 -99 47 -216 103 -260 124 -44 21 -123 58
-175 82 -112 53 -250 118 -415 197 -66 31 -147 70 -180 85 -122 57 -253 118
-360 170 -60 29 -184 88 -275 130 -91 43 -244 115 -340 160 -442 209 -413 197
-445 186z" />
<path d="M4280 8922 c-153 -78 -557 -285 -860 -440 -135 -69 -317 -162 -405
-207 -88 -45 -263 -135 -390 -200 -126 -64 -333 -170 -460 -234 -209 -107
-230 -120 -235 -146 -8 -48 9 -1681 24 -2299 15 -594 23 -684 62 -773 8 -17
14 -38 14 -47 0 -43 132 -301 199 -391 87 -114 293 -318 408 -403 146 -107
663 -465 1108 -767 44 -30 112 -76 150 -103 156 -107 340 -233 525 -357 107
-73 235 -160 285 -194 49 -33 99 -61 110 -61 11 0 32 8 46 18 38 25 124 84
199 136 36 25 88 62 115 81 28 19 95 66 150 105 55 39 115 81 132 93 39 26 46
40 30 60 -7 9 -165 118 -352 243 -187 125 -457 306 -600 403 -143 97 -384 259
-536 361 -327 220 -517 348 -619 419 -41 29 -106 73 -145 99 -251 165 -395
340 -460 559 l-27 88 -8 535 c-5 294 -14 798 -19 1120 -11 552 -10 585 6 601
19 18 95 60 493 270 304 160 419 220 506 264 38 19 144 74 235 122 90 49 235
124 321 168 l156 80 113 -55 c63 -29 453 -221 866 -426 585 -289 755 -378 762
-396 12 -29 31 -1051 32 -1723 0 -479 -1 -503 -21 -580 -24 -91 -83 -218 -132
-286 -80 -111 -187 -207 -414 -369 -42 -30 -120 -87 -173 -126 -126 -92 -424
-305 -520 -371 -42 -29 -96 -70 -121 -92 -45 -39 -45 -40 -25 -59 11 -11 70
-53 130 -94 61 -41 202 -138 315 -216 129 -89 214 -142 230 -142 14 0 48 17
76 37 28 21 97 72 153 113 667 488 785 586 933 767 71 87 168 234 201 304 54
114 76 171 83 207 4 20 10 44 15 54 5 9 18 74 30 145 21 125 21 144 15 873 -4
410 -11 871 -16 1025 -5 154 -9 447 -10 652 0 204 -4 382 -9 395 -6 14 -34 35
-73 55 -86 44 -582 285 -693 338 -106 50 -474 228 -660 320 -139 68 -398 192
-585 282 -63 30 -155 74 -205 98 -313 150 -297 148 -455 67z" />
<path d="M4390 6860 c-140 -13 -238 -57 -338 -153 -114 -110 -162 -226 -162
-394 0 -87 4 -113 30 -186 16 -47 45 -107 62 -134 30 -45 153 -163 170 -163
20 0 27 -106 33 -523 6 -380 10 -460 22 -472 12 -12 58 -15 257 -15 229 0 244
1 261 20 17 18 17 46 11 487 -6 382 -5 471 6 484 7 9 38 35 68 59 91 70 154
158 192 271 39 118 23 317 -34 416 -75 129 -175 222 -293 272 -81 34 -160 42
-285 31z" />
</g>
</svg>
